#define 0bba30817af54f1c9758a0756392700c_width 48
#define 0bba30817af54f1c9758a0756392700c_height 48
static char 0bba30817af54f1c9758a0756392700c_bits[] = {
  0x00, 0x00, 0x00, 0x02, 0x00, 0x00, 0x00, 0x00, 0x00, 0x07, 0x00, 0x00, 
  0x00, 0x00, 0x80, 0x0F, 0x00, 0x00, 0x00, 0x00, 0xC0, 0x1D, 0x00, 0x00, 
  0x00, 0x00, 0xE0, 0x38, 0x00, 0x00, 0x00, 0x00, 0x70, 0x70, 0x00, 0x00, 
  0x00, 0x00, 0x38, 0xE0, 0x00, 0x00, 0x00, 0x00, 0x1C, 0xC0, 0x01, 0x00, 
  0x00, 0x00, 0x0E, 0x80, 0x03, 0x00, 0x00, 0x00, 0x07, 0x00, 0x07, 0x00, 
  0x00, 0x80, 0x03, 0x00, 0x0E, 0x00, 0x00, 0xC0, 0x01, 0x00, 0x1C, 0x00, 
  0x00, 0xE0, 0x00, 0x00, 0x38, 0x00, 0x00, 0x70, 0x00, 0x00, 0x70, 0x00, 
  0x00, 0x38, 0x00, 0x00, 0xE0, 0x00, 0x00, 0x1C, 0x00, 0x00, 0xC0, 0x01, 
  0x00, 0x0E, 0x00, 0x00, 0x80, 0x03, 0x00, 0x07, 0x00, 0x00, 0x00, 0x07, 
  0x80, 0x03, 0x00, 0x00, 0x00, 0x0E, 0xC0, 0xFF, 0x0F, 0x80, 0xFF, 0x1F, 
  0xC0, 0xFF, 0x0F, 0x80, 0xFF, 0x1F, 0x00, 0x00, 0x0C, 0x80, 0x01, 0x00, 
  0x00, 0x00, 0x0C, 0x80, 0x01, 0x00, 0x00, 0x00, 0x0C, 0x80, 0x01, 0x00, 
  0x00, 0x00, 0x0C, 0x80, 0x01, 0x00, 0x00, 0x00, 0x0C, 0x80, 0x01, 0x00, 
  0x00, 0x00, 0x0C, 0x80, 0x01, 0x00, 0x00, 0x00, 0x0C, 0x80, 0x01, 0x00, 
  0x00, 0x00, 0x0C, 0x80, 0x01, 0x00, 0x00, 0x00, 0x0C, 0x80, 0x01, 0x00, 
  0x00, 0x00, 0x0C, 0x80, 0x01, 0x00, 0x00, 0x00, 0x0C, 0x80, 0x01, 0x00, 
  0x00, 0x00, 0x0C, 0x80, 0x01, 0x00, 0x00, 0x00, 0x0C, 0x80, 0x01, 0x00, 
  0x00, 0x00, 0x0C, 0x80, 0x01, 0x00, 0x00, 0x00, 0x0C, 0x80, 0x01, 0x00, 
  0x00, 0x00, 0x0C, 0x80, 0x01, 0x00, 0x00, 0x00, 0x0C, 0x80, 0x01, 0x00, 
  0x00, 0x00, 0x0C, 0x80, 0x01, 0x00, 0x00, 0x00, 0x0C, 0x80, 0x01, 0x00, 
  0x00, 0x00, 0x0C, 0x80, 0x01, 0x00, 0x00, 0x00, 0x0C, 0x80, 0x01, 0x00, 
  0x00, 0x00, 0x0C, 0x80, 0x01, 0x00, 0x00, 0x00, 0x0C, 0x80, 0x01, 0x00, 
  0x00, 0x00, 0x0C, 0x80, 0x01, 0x00, 0x00, 0x00, 0x0C, 0x80, 0x01, 0x00, 
  0x00, 0x00, 0xFC, 0xFF, 0x01, 0x00, 0x00, 0x00, 0xFC, 0xFF, 0x01, 0x00, 
  };
