#define 1d6099e73a274eedf116a90a5ee9f2d3_width 48
#define 1d6099e73a274eedf116a90a5ee9f2d3_height 48
static char 1d6099e73a274eedf116a90a5ee9f2d3_bits[] = {
  0x00, 0x00, 0x00, 0x00, 0x00, 0x00, 0x00, 0x00, 0x00, 0x00, 0x00, 0x00, 
  0x00, 0x00, 0x00, 0x00, 0x00, 0x00, 0x00, 0x00, 0xF8, 0x3F, 0x00, 0x00, 
  0x00, 0x00, 0xF8, 0x3F, 0x00, 0x00, 0x00, 0x00, 0xF8, 0x3F, 0x00, 0x00, 
  0x00, 0x00, 0xF8, 0x3F, 0x00, 0x00, 0x00, 0x00, 0xE0, 0x0F, 0x00, 0x00, 
  0x00, 0x00, 0xE0, 0x0F, 0x00, 0x00, 0x00, 0x00, 0xE0, 0x0F, 0x00, 0x00, 
  0x00, 0x00, 0xF8, 0x3F, 0x00, 0x00, 0x00, 0x00, 0xF8, 0x3F, 0x00, 0x00, 
  0x00, 0x00, 0x00, 0x00, 0x00, 0x00, 0x00, 0xF0, 0x0F, 0x00, 0x00, 0x00, 
  0x00, 0xF8, 0xFF, 0xFF, 0x01, 0x00, 0x00, 0xF8, 0xFF, 0xFF, 0x01, 0x00, 
  0x00, 0xF8, 0xFF, 0x07, 0x00, 0x00, 0x00, 0xF8, 0xFF, 0xFF, 0x01, 0x00, 
  0x00, 0xF8, 0xFF, 0x07, 0x00, 0x00, 0x00, 0xF8, 0xFF, 0xFF, 0x01, 0x00, 
  0x00, 0xF8, 0xFF, 0x07, 0x00, 0x00, 0x00, 0xF8, 0xFF, 0xFF, 0x01, 0x00, 
  0x00, 0xF8, 0xFF, 0x07, 0x00, 0x00, 0x00, 0xF8, 0xFF, 0xFF, 0x01, 0x00, 
  0x00, 0xF8, 0xFF, 0x07, 0x00, 0x00, 0x00, 0xF8, 0xFF, 0xFF, 0x01, 0x00, 
  0x00, 0xF8, 0xFF, 0x07, 0x00, 0x00, 0x00, 0xF8, 0xFF, 0xFF, 0x01, 0x00, 
  0x00, 0xF8, 0xFF, 0x07, 0x00, 0x00, 0x00, 0xF8, 0xFF, 0xFF, 0x01, 0x00, 
  0x00, 0xF8, 0xFF, 0x07, 0x00, 0x00, 0x00, 0xF8, 0xFF, 0xFF, 0x01, 0x00, 
  0x00, 0xF8, 0xFF, 0xFF, 0x01, 0x00, 0x00, 0xF0, 0xFF, 0xFF, 0x01, 0x00, 
  0x00, 0x00, 0x80, 0x07, 0x00, 0x00, 0x00, 0x00, 0x80, 0x07, 0x00, 0x00, 
  0x00, 0x00, 0xF0, 0xFF, 0x0F, 0x00, 0x00, 0x00, 0xF0, 0xFF, 0x0F, 0x00, 
  0x00, 0x00, 0xF0, 0x3F, 0x0F, 0x00, 0x00, 0x00, 0xF0, 0x1F, 0x0E, 0x00, 
  0x00, 0x00, 0xF0, 0x1F, 0x00, 0x00, 0x00, 0x00, 0xF0, 0x3F, 0x0F, 0x00, 
  0x00, 0x00, 0xF0, 0xFF, 0x0F, 0x00, 0x00, 0x00, 0xC0, 0x0F, 0x00, 0x00, 
  0x00, 0x00, 0x80, 0x07, 0x00, 0x00, 0x00, 0x00, 0x80, 0x07, 0x00, 0x00, 
  0x00, 0x00, 0x00, 0x03, 0x00, 0x00, 0x00, 0x00, 0x00, 0x00, 0x00, 0x00, 
  };
