#define 4f35168abdf84468f1ab2c499fd1ab81_width 41
#define 4f35168abdf84468f1ab2c499fd1ab81_height 48
static char 4f35168abdf84468f1ab2c499fd1ab81_bits[] = {
  0x00, 0x00, 0x78, 0x00, 0x00, 0x00, 0x00, 0x00, 0xFC, 0x00, 0x00, 0x00, 
  0x00, 0x00, 0xFE, 0x00, 0x00, 0x00, 0x00, 0x00, 0xFB, 0x00, 0x00, 0x00, 
  0x00, 0x80, 0xFD, 0x00, 0x00, 0x00, 0x00, 0x80, 0xFF, 0x00, 0x00, 0x00, 
  0x00, 0x78, 0xFC, 0x00, 0x00, 0x00, 0x00, 0xFF, 0x73, 0x00, 0x00, 0x00, 
  0xC0, 0xE7, 0x4F, 0x0F, 0x00, 0x00, 0xE0, 0xF3, 0x3F, 0x3F, 0x00, 0x00, 
  0xF0, 0xF8, 0x3F, 0x7F, 0x00, 0x00, 0x78, 0xFC, 0x3F, 0xF0, 0x01, 0x00, 
  0x38, 0xFE, 0x7F, 0xC0, 0x03, 0x00, 0x70, 0xFF, 0x7F, 0x80, 0x07, 0x00, 
  0xC0, 0xFF, 0xFF, 0x00, 0x07, 0x00, 0x00, 0xFF, 0xFF, 0x00, 0x0E, 0x00, 
  0x00, 0xFE, 0xFF, 0x00, 0x1C, 0x00, 0x00, 0xF8, 0xFF, 0x00, 0x1C, 0x00, 
  0x00, 0xE0, 0xFF, 0x00, 0x38, 0x00, 0x00, 0x80, 0xFF, 0x00, 0x38, 0x00, 
  0x00, 0x00, 0xFF, 0x00, 0x38, 0x00, 0x00, 0x00, 0x7C, 0x00, 0x30, 0x00, 
  0x00, 0x00, 0x70, 0x00, 0x30, 0x00, 0x00, 0x00, 0x00, 0x00, 0x30, 0x00, 
  0x00, 0x00, 0x00, 0x00, 0x38, 0x00, 0x00, 0x00, 0x00, 0x00, 0x38, 0x00, 
  0x00, 0x00, 0x00, 0x00, 0x38, 0x00, 0x00, 0x00, 0x00, 0x00, 0x1C, 0x00, 
  0x00, 0x00, 0x00, 0x00, 0x1C, 0x00, 0x00, 0x00, 0x00, 0x00, 0x0E, 0x00, 
  0x00, 0x00, 0x00, 0x00, 0x0E, 0x00, 0x00, 0x00, 0x00, 0x00, 0x07, 0x00, 
  0x00, 0x00, 0x00, 0x00, 0x07, 0x00, 0x00, 0x00, 0x00, 0x80, 0x03, 0x00, 
  0x00, 0x00, 0x00, 0x80, 0x03, 0x00, 0x00, 0x00, 0x00, 0xC0, 0x01, 0x00, 
  0x00, 0x00, 0x00, 0xC0, 0x01, 0x00, 0x00, 0x00, 0x00, 0xE0, 0x01, 0x00, 
  0x00, 0x00, 0x00, 0xE0, 0x00, 0x00, 0x00, 0x00, 0x00, 0xE0, 0x00, 0x00, 
  0x00, 0x00, 0xF0, 0xE0, 0x00, 0x00, 0x00, 0x00, 0xD0, 0xE0, 0x00, 0x00, 
  0x00, 0x80, 0xFF, 0xFF, 0x03, 0x00, 0x00, 0x80, 0xFE, 0xFF, 0x07, 0x00, 
  0x00, 0xC0, 0xFE, 0xFF, 0x07, 0x00, 0x00, 0x40, 0xFE, 0xFF, 0x07, 0x00, 
  0x00, 0x40, 0xFF, 0xFF, 0x0F, 0x00, 0x00, 0xE0, 0xFF, 0xFF, 0x0F, 0x00, 
  };
