#define 66fe76ee2a524f659ccbefc49db1ff22_width 34
#define 66fe76ee2a524f659ccbefc49db1ff22_height 48
static char 66fe76ee2a524f659ccbefc49db1ff22_bits[] = {
  0x00, 0xF8, 0x7F, 0x00, 0x00, 0x00, 0xFE, 0xFF, 0x01, 0x00, 0x80, 0xFF, 
  0xFC, 0x07, 0x00, 0xC0, 0x0F, 0xC0, 0x0F, 0x00, 0xE0, 0x01, 0x00, 0x1E, 
  0x00, 0xF0, 0xC0, 0x03, 0x3C, 0x00, 0x78, 0xF0, 0x07, 0x78, 0x00, 0x3C, 
  0x7C, 0x0E, 0xF0, 0x00, 0x1C, 0x1E, 0x0C, 0xE0, 0x00, 0x0E, 0xCF, 0x0F, 
  0xC0, 0x01, 0x8E, 0xE7, 0x07, 0xC0, 0x01, 0x87, 0x73, 0x00, 0x80, 0x03, 
  0xC7, 0x19, 0x00, 0x80, 0x03, 0xC7, 0x0C, 0x00, 0x80, 0x03, 0xE7, 0x0E, 
  0x00, 0x80, 0x03, 0x67, 0x06, 0x00, 0x80, 0x03, 0x67, 0x06, 0x00, 0x80, 
  0x03, 0xE7, 0x07, 0x00, 0x80, 0x03, 0xC7, 0x03, 0x00, 0x80, 0x03, 0x87, 
  0x01, 0x00, 0x80, 0x03, 0x07, 0x00, 0x00, 0x80, 0x03, 0x07, 0x00, 0x00, 
  0x80, 0x03, 0x0E, 0x00, 0x00, 0xC0, 0x01, 0x0E, 0x00, 0x00, 0xC0, 0x01, 
  0x1E, 0x00, 0x00, 0xE0, 0x01, 0x1C, 0x00, 0x00, 0xE0, 0x00, 0x38, 0x00, 
  0x00, 0x70, 0x00, 0x78, 0x00, 0x00, 0x78, 0x00, 0xF0, 0x00, 0x00, 0x3C, 
  0x00, 0xE0, 0x00, 0x00, 0x1C, 0x00, 0xC0, 0x01, 0x00, 0x0E, 0x00, 0xC0, 
  0x03, 0x00, 0x0F, 0x00, 0x80, 0x03, 0x00, 0x07, 0x00, 0x80, 0x07, 0x80, 
  0x07, 0x00, 0x00, 0xFF, 0xFF, 0x03, 0x00, 0x00, 0xFF, 0xFF, 0x03, 0x00, 
  0x00, 0xFF, 0xFF, 0x03, 0x00, 0x00, 0x00, 0x00, 0x00, 0x00, 0x00, 0xFF, 
  0xFF, 0x03, 0x00, 0x00, 0xFF, 0xFF, 0x03, 0x00, 0x00, 0x07, 0x80, 0x03, 
  0x00, 0x00, 0x07, 0x80, 0x03, 0x00, 0x00, 0x0F, 0xC0, 0x03, 0x00, 0x00, 
  0x0E, 0xC0, 0x01, 0x00, 0x00, 0x1E, 0xE0, 0x01, 0x00, 0x00, 0x3C, 0xF0, 
  0x00, 0x00, 0x00, 0xFC, 0xFF, 0x00, 0x00, 0x00, 0xF0, 0x3F, 0x00, 0x00, 
  };
