#define ed7d65d59e3e4aedccf9ed9c2a4c8ad6_width 49
#define ed7d65d59e3e4aedccf9ed9c2a4c8ad6_height 49
static char ed7d65d59e3e4aedccf9ed9c2a4c8ad6_bits[] = {
  0x00, 0x00, 0x00, 0x00, 0x00, 0x00, 0x00, 0x00, 0x00, 0xF0, 0x1F, 0x00, 
  0x00, 0x00, 0x00, 0x00, 0xFE, 0xFF, 0x00, 0x00, 0x00, 0x00, 0xC0, 0xFF, 
  0xFF, 0x07, 0x00, 0x00, 0x00, 0xF0, 0x0F, 0xE0, 0x1F, 0x00, 0x00, 0x00, 
  0xF8, 0x01, 0x00, 0x3F, 0x00, 0x00, 0x00, 0x7C, 0x00, 0x00, 0x7C, 0x00, 
  0x00, 0x00, 0x1F, 0x00, 0x00, 0xF0, 0x01, 0x00, 0x80, 0x0F, 0x00, 0x00, 
  0xE0, 0x03, 0x00, 0x80, 0x07, 0x00, 0x00, 0xC0, 0x03, 0x00, 0xC0, 0x03, 
  0x00, 0x00, 0x80, 0x07, 0x00, 0xE0, 0x01, 0x00, 0x00, 0x00, 0x0F, 0x00, 
  0xF0, 0x00, 0x00, 0x00, 0x00, 0x1E, 0x00, 0x70, 0x00, 0x3F, 0xF8, 0x01, 
  0x1C, 0x00, 0x78, 0x00, 0x3F, 0xF8, 0x01, 0x3C, 0x00, 0x38, 0x00, 0x3F, 
  0xF8, 0x01, 0x38, 0x00, 0x38, 0x00, 0x3F, 0xF8, 0x01, 0x78, 0x00, 0x1C, 
  0x00, 0x3F, 0xF8, 0x01, 0x70, 0x00, 0x1C, 0x00, 0x3F, 0xF8, 0x01, 0x70, 
  0x00, 0x1C, 0x00, 0x3F, 0xF8, 0x01, 0x70, 0x00, 0x0E, 0x00, 0x3F, 0xF8, 
  0x01, 0xE0, 0x00, 0x0E, 0x00, 0x3F, 0xF8, 0x01, 0xE0, 0x00, 0x0E, 0x00, 
  0x3F, 0xF8, 0x01, 0xE0, 0x00, 0x0E, 0x00, 0x3F, 0xF8, 0x01, 0xE0, 0x00, 
  0x0E, 0x00, 0x3F, 0xF8, 0x01, 0xE0, 0x00, 0x0E, 0x00, 0x3F, 0xF8, 0x01, 
  0xE0, 0x00, 0x0E, 0x00, 0x3F, 0xF8, 0x01, 0xE0, 0x00, 0x0E, 0x00, 0x3F, 
  0xF8, 0x01, 0xE0, 0x00, 0x0E, 0x00, 0x3F, 0xF8, 0x01, 0xE0, 0x00, 0x1C, 
  0x00, 0x3F, 0xF8, 0x01, 0x70, 0x00, 0x1C, 0x00, 0x3F, 0xF8, 0x01, 0x70, 
  0x00, 0x1C, 0x00, 0x3F, 0xF8, 0x01, 0x70, 0x00, 0x38, 0x00, 0x3F, 0xF8, 
  0x01, 0x78, 0x00, 0x38, 0x00, 0x3F, 0xF8, 0x01, 0x38, 0x00, 0x78, 0x00, 
  0x3F, 0xF8, 0x01, 0x3C, 0x00, 0x70, 0x00, 0x3F, 0xF8, 0x01, 0x1C, 0x00, 
  0xF0, 0x00, 0x00, 0x00, 0x00, 0x1E, 0x00, 0xE0, 0x01, 0x00, 0x00, 0x00, 
  0x0F, 0x00, 0xC0, 0x03, 0x00, 0x00, 0x80, 0x07, 0x00, 0x80, 0x07, 0x00, 
  0x00, 0xC0, 0x07, 0x00, 0x80, 0x0F, 0x00, 0x00, 0xE0, 0x03, 0x00, 0x00, 
  0x1F, 0x00, 0x00, 0xF0, 0x01, 0x00, 0x00, 0x7C, 0x00, 0x00, 0xFC, 0x00, 
  0x00, 0x00, 0xF8, 0x01, 0x00, 0x3F, 0x00, 0x00, 0x00, 0xF0, 0x0F, 0xE0, 
  0x1F, 0x00, 0x00, 0x00, 0xC0, 0xFF, 0xFF, 0x07, 0x00, 0x00, 0x00, 0x00, 
  0xFF, 0xFF, 0x01, 0x00, 0x00, 0x00, 0x00, 0xF0, 0x1F, 0x00, 0x00, 0x00, 
  0x00, 0x00, 0x00, 0x00, 0x00, 0x00, 0x00, };
